<svg width="48" height="48" viewBox="0 0 48 48" fill="none" xmlns="http://www.w3.org/2000/svg">
<rect width="48" height="48" rx="24" fill="white"/>
<path d="M13.5703 14.7188C13.1797 13.5 13.4375 12.8906 14.3438 12.8906H18.5391C19.2734 12.8906 19.7422 13.2891 19.9453 14.0859L23.5781 27.8203C23.7812 28.5859 23.9453 29.3438 24.0703 30.0938C24.2109 30.8438 24.2969 31.4531 24.3281 31.9219H24.4688C24.5 31.4531 24.5781 30.8438 24.7031 30.0938C24.8438 29.3438 25.0156 28.5859 25.2188 27.8203L28.8516 14.0859C29.0547 13.2891 29.5234 12.8906 30.2578 12.8906H34.4531C35.3594 12.8906 35.6172 13.5 35.2266 14.7188L28.4297 35.9297C28.1016 36.9766 27.5312 37.5 26.7188 37.5H22.0781C21.2656 37.5 20.6953 36.9766 20.3672 35.9297L13.5703 14.7188Z" fill="#2563EB"/>
</svg>
