<svg width="205" height="48" viewBox="0 0 205 48" fill="none" xmlns="http://www.w3.org/2000/svg">
<path d="M97 0H205V48H97V0Z" fill="#2583E7"/>
<path d="M8.36648 9.36364L14.5469 29.6051H14.7763L20.9567 9.36364H28.4325L19.108 37H10.2152L0.890625 9.36364H8.36648ZM34.839 37.3509C33.5165 37.3509 32.3425 37.1304 31.3169 36.6896C30.3004 36.2398 29.4952 35.5651 28.9015 34.6655C28.3167 33.7569 28.0243 32.6188 28.0243 31.2514C28.0243 30.0999 28.2267 29.1283 28.6316 28.3366C29.0364 27.545 29.5942 26.9018 30.3049 26.407C31.0156 25.9122 31.8342 25.5388 32.7608 25.2869C33.6874 25.026 34.677 24.8506 35.7296 24.7607C36.9081 24.6527 37.8572 24.5402 38.5769 24.4233C39.2966 24.2973 39.8184 24.1219 40.1422 23.897C40.4751 23.6631 40.6415 23.3348 40.6415 22.9119V22.8445C40.6415 22.1518 40.4031 21.6165 39.9263 21.2386C39.4495 20.8608 38.8063 20.6719 37.9966 20.6719C37.124 20.6719 36.4223 20.8608 35.8915 21.2386C35.3607 21.6165 35.0234 22.1383 34.8794 22.804L28.7935 22.5881C28.9734 21.3286 29.4367 20.2041 30.1834 19.2145C30.9391 18.2159 31.9737 17.4332 33.2871 16.8665C34.6096 16.2907 36.1974 16.0028 38.0506 16.0028C39.373 16.0028 40.592 16.1603 41.7076 16.4751C42.8231 16.781 43.7947 17.2308 44.6223 17.8246C45.45 18.4093 46.0887 19.129 46.5385 19.9837C46.9973 20.8383 47.2267 21.8144 47.2267 22.9119V37H41.0194V34.1122H40.8574C40.4886 34.8139 40.0163 35.4077 39.4405 35.8935C38.8738 36.3793 38.2035 36.7436 37.4299 36.9865C36.6652 37.2294 35.8016 37.3509 34.839 37.3509ZM36.8766 33.0327C37.5873 33.0327 38.226 32.8887 38.7928 32.6009C39.3685 32.313 39.8274 31.9171 40.1692 31.4134C40.5111 30.9006 40.682 30.3068 40.682 29.6321V27.6619C40.4931 27.7609 40.2637 27.8509 39.9938 27.9318C39.7329 28.0128 39.445 28.0893 39.1301 28.1612C38.8153 28.2332 38.4914 28.2962 38.1586 28.3501C37.8257 28.4041 37.5063 28.4536 37.2005 28.4986C36.5797 28.5975 36.0489 28.7505 35.6081 28.9574C35.1763 29.1643 34.8435 29.4342 34.6096 29.767C34.3846 30.0909 34.2722 30.4777 34.2722 30.9276C34.2722 31.6113 34.5151 32.133 35.0009 32.4929C35.4957 32.8527 36.1209 33.0327 36.8766 33.0327ZM60.937 37.3913C58.7509 37.3913 56.8752 36.9415 55.3098 36.0419C53.7535 35.1423 52.557 33.8918 51.7203 32.2905C50.8837 30.6802 50.4654 28.8179 50.4654 26.7038C50.4654 24.5807 50.8837 22.7185 51.7203 21.1172C52.566 19.5069 53.767 18.2519 55.3233 17.3523C56.8887 16.4527 58.7554 16.0028 60.9235 16.0028C62.8397 16.0028 64.5085 16.3492 65.9299 17.0419C67.3603 17.7346 68.4758 18.7152 69.2765 19.9837C70.0861 21.2431 70.5134 22.723 70.5584 24.4233H64.3915C64.2656 23.3617 63.9057 22.5296 63.312 21.9268C62.7272 21.3241 61.9625 21.0227 61.0179 21.0227C60.2533 21.0227 59.583 21.2386 59.0073 21.6705C58.4315 22.0933 57.9817 22.723 57.6578 23.5597C57.343 24.3873 57.1855 25.4129 57.1855 26.6364C57.1855 27.8598 57.343 28.8944 57.6578 29.7401C57.9817 30.5767 58.4315 31.2109 59.0073 31.6428C59.583 32.0656 60.2533 32.277 61.0179 32.277C61.6297 32.277 62.1694 32.1465 62.6373 31.8857C63.1141 31.6248 63.5054 31.2424 63.8113 30.7386C64.1171 30.2259 64.3105 29.6051 64.3915 28.8764H70.5584C70.4954 30.5857 70.0681 32.0791 69.2765 33.3565C68.4938 34.634 67.3917 35.6281 65.9703 36.3388C64.5579 37.0405 62.8801 37.3913 60.937 37.3913ZM79.7784 37.3509C78.456 37.3509 77.282 37.1304 76.2564 36.6896C75.2398 36.2398 74.4347 35.5651 73.8409 34.6655C73.2562 33.7569 72.9638 32.6188 72.9638 31.2514C72.9638 30.0999 73.1662 29.1283 73.571 28.3366C73.9759 27.545 74.5336 26.9018 75.2443 26.407C75.955 25.9122 76.7737 25.5388 77.7003 25.2869C78.6269 25.026 79.6165 24.8506 80.669 24.7607C81.8475 24.6527 82.7966 24.5402 83.5163 24.4233C84.236 24.2973 84.7578 24.1219 85.0817 23.897C85.4145 23.6631 85.581 23.3348 85.581 22.9119V22.8445C85.581 22.1518 85.3426 21.6165 84.8658 21.2386C84.389 20.8608 83.7457 20.6719 82.9361 20.6719C82.0634 20.6719 81.3617 20.8608 80.831 21.2386C80.3002 21.6165 79.9628 22.1383 79.8189 22.804L73.733 22.5881C73.9129 21.3286 74.3762 20.2041 75.1229 19.2145C75.8786 18.2159 76.9131 17.4332 78.2266 16.8665C79.549 16.2907 81.1368 16.0028 82.9901 16.0028C84.3125 16.0028 85.5315 16.1603 86.647 16.4751C87.7625 16.781 88.7341 17.2308 89.5618 17.8246C90.3894 18.4093 91.0282 19.129 91.478 19.9837C91.9368 20.8383 92.1662 21.8144 92.1662 22.9119V37H85.9588V34.1122H85.7969C85.428 34.8139 84.9557 35.4077 84.38 35.8935C83.8132 36.3793 83.143 36.7436 82.3693 36.9865C81.6046 37.2294 80.741 37.3509 79.7784 37.3509ZM81.8161 33.0327C82.5268 33.0327 83.1655 32.8887 83.7322 32.6009C84.308 32.313 84.7668 31.9171 85.1087 31.4134C85.4505 30.9006 85.6214 30.3068 85.6214 29.6321V27.6619C85.4325 27.7609 85.2031 27.8509 84.9332 27.9318C84.6723 28.0128 84.3845 28.0893 84.0696 28.1612C83.7547 28.2332 83.4309 28.2962 83.098 28.3501C82.7652 28.4041 82.4458 28.4536 82.1399 28.4986C81.5192 28.5975 80.9884 28.7505 80.5476 28.9574C80.1158 29.1643 79.7829 29.4342 79.549 29.767C79.3241 30.0909 79.2116 30.4777 79.2116 30.9276C79.2116 31.6113 79.4545 32.133 79.9403 32.4929C80.4351 32.8527 81.0604 33.0327 81.8161 33.0327Z" fill="black"/>
<path d="M122.501 18.3913C122.348 17.8246 122.124 17.3253 121.827 16.8935C121.53 16.4527 121.165 16.0793 120.734 15.7734C120.302 15.4676 119.807 15.2382 119.249 15.0852C118.692 14.9233 118.08 14.8423 117.414 14.8423C116.074 14.8423 114.913 15.1662 113.933 15.8139C112.961 16.4616 112.21 17.4062 111.679 18.6477C111.148 19.8802 110.883 21.3781 110.883 23.1413C110.883 24.9136 111.139 26.425 111.652 27.6754C112.165 28.9259 112.907 29.8795 113.879 30.5362C114.85 31.1929 116.029 31.5213 117.414 31.5213C118.638 31.5213 119.672 31.3234 120.518 30.9276C121.372 30.5227 122.02 29.9515 122.461 29.2138C122.902 28.4761 123.122 27.608 123.122 26.6094L124.364 26.7578H117.643V21.8864H129.559V25.5433C129.559 28.0173 129.033 30.1359 127.98 31.8991C126.937 33.6624 125.497 35.0163 123.662 35.9609C121.836 36.9055 119.735 37.3778 117.36 37.3778C114.724 37.3778 112.408 36.8066 110.411 35.6641C108.413 34.5215 106.857 32.8932 105.741 30.7791C104.626 28.656 104.068 26.1371 104.068 23.2223C104.068 20.9553 104.406 18.9446 105.08 17.1903C105.755 15.4271 106.695 13.9337 107.901 12.7102C109.115 11.4867 110.518 10.5601 112.111 9.9304C113.712 9.30066 115.435 8.98579 117.279 8.98579C118.88 8.98579 120.369 9.2152 121.746 9.67401C123.131 10.1328 124.355 10.7805 125.416 11.6172C126.487 12.4538 127.355 13.4479 128.021 14.5994C128.686 15.7509 129.1 17.0149 129.262 18.3913H122.501ZM143.185 37.3913C141.017 37.3913 139.146 36.964 137.571 36.1094C136.006 35.2457 134.8 34.0178 133.955 32.4254C133.118 30.8241 132.7 28.9214 132.7 26.7173C132.7 24.5762 133.123 22.705 133.968 21.1037C134.814 19.4934 136.006 18.2429 137.544 17.3523C139.083 16.4527 140.895 16.0028 142.982 16.0028C144.458 16.0028 145.807 16.2322 147.031 16.691C148.254 17.1499 149.311 17.8291 150.202 18.7287C151.093 19.6283 151.785 20.7393 152.28 22.0618C152.775 23.3752 153.022 24.8821 153.022 26.5824V28.2287H135.007V24.3963H146.882C146.873 23.6946 146.707 23.0694 146.383 22.5206C146.059 21.9718 145.614 21.5445 145.047 21.2386C144.489 20.9238 143.846 20.7663 143.117 20.7663C142.38 20.7663 141.718 20.9328 141.134 21.2656C140.549 21.5895 140.086 22.0348 139.744 22.6016C139.402 23.1593 139.222 23.7936 139.204 24.5043V28.4041C139.204 29.2498 139.37 29.992 139.703 30.6307C140.036 31.2604 140.508 31.7507 141.12 32.1016C141.732 32.4524 142.461 32.6278 143.306 32.6278C143.891 32.6278 144.422 32.5469 144.899 32.3849C145.375 32.223 145.785 31.9846 146.127 31.6697C146.468 31.3549 146.725 30.968 146.896 30.5092L152.955 30.6847C152.703 32.0431 152.15 33.2261 151.295 34.2337C150.449 35.2322 149.338 36.0104 147.962 36.5682C146.585 37.117 144.993 37.3913 143.185 37.3913ZM174.488 22.6016L168.429 22.7635C168.366 22.3317 168.195 21.9493 167.917 21.6165C167.638 21.2746 167.273 21.0092 166.824 20.8203C166.383 20.6224 165.87 20.5234 165.285 20.5234C164.52 20.5234 163.868 20.6764 163.328 20.9822C162.798 21.2881 162.537 21.7019 162.546 22.2237C162.537 22.6286 162.699 22.9794 163.032 23.2763C163.373 23.5732 163.981 23.8116 164.853 23.9915L168.848 24.7472C170.917 25.143 172.455 25.7997 173.463 26.7173C174.479 27.6349 174.992 28.8494 175.001 30.3608C174.992 31.7822 174.569 33.0192 173.733 34.0717C172.905 35.1243 171.771 35.9429 170.332 36.5277C168.893 37.1035 167.246 37.3913 165.393 37.3913C162.433 37.3913 160.099 36.7841 158.39 35.5696C156.689 34.3461 155.718 32.7088 155.475 30.6577L161.993 30.4957C162.136 31.2514 162.51 31.8272 163.113 32.223C163.715 32.6188 164.484 32.8168 165.42 32.8168C166.266 32.8168 166.954 32.6593 167.485 32.3445C168.016 32.0296 168.285 31.6113 168.294 31.0895C168.285 30.6217 168.078 30.2483 167.674 29.9695C167.269 29.6816 166.635 29.4567 165.771 29.2947L162.154 28.6065C160.076 28.2287 158.529 27.5315 157.512 26.5149C156.496 25.4893 155.992 24.1849 156.001 22.6016C155.992 21.2161 156.361 20.0331 157.108 19.0526C157.854 18.063 158.916 17.3073 160.292 16.7855C161.669 16.2637 163.292 16.0028 165.164 16.0028C167.971 16.0028 170.184 16.5921 171.803 17.7706C173.422 18.9401 174.317 20.5504 174.488 22.6016ZM189.949 16.2727V21.1307H176.873V16.2727H189.949ZM179.613 11.3068H186.211V30.4822C186.211 30.8871 186.274 31.2154 186.4 31.4673C186.535 31.7102 186.729 31.8857 186.981 31.9936C187.233 32.0926 187.534 32.142 187.885 32.142C188.137 32.142 188.402 32.1196 188.681 32.0746C188.969 32.0206 189.185 31.9756 189.329 31.9396L190.327 36.7031C190.012 36.7931 189.567 36.9055 188.991 37.0405C188.425 37.1754 187.745 37.2609 186.954 37.2969C185.406 37.3688 184.079 37.1889 182.973 36.7571C181.875 36.3163 181.034 35.6326 180.449 34.706C179.874 33.7794 179.595 32.6143 179.613 31.2109V11.3068Z" fill="black"/>
<path d="M122.501 18.3913C122.348 17.8246 122.124 17.3253 121.827 16.8935C121.53 16.4527 121.165 16.0793 120.734 15.7734C120.302 15.4676 119.807 15.2382 119.249 15.0852C118.692 14.9233 118.08 14.8423 117.414 14.8423C116.074 14.8423 114.913 15.1662 113.933 15.8139C112.961 16.4616 112.21 17.4062 111.679 18.6477C111.148 19.8802 110.883 21.3781 110.883 23.1413C110.883 24.9136 111.139 26.425 111.652 27.6754C112.165 28.9259 112.907 29.8795 113.879 30.5362C114.85 31.1929 116.029 31.5213 117.414 31.5213C118.638 31.5213 119.672 31.3234 120.518 30.9276C121.372 30.5227 122.02 29.9515 122.461 29.2138C122.902 28.4761 123.122 27.608 123.122 26.6094L124.364 26.7578H117.643V21.8864H129.559V25.5433C129.559 28.0173 129.033 30.1359 127.98 31.8991C126.937 33.6624 125.497 35.0163 123.662 35.9609C121.836 36.9055 119.735 37.3778 117.36 37.3778C114.724 37.3778 112.408 36.8066 110.411 35.6641C108.413 34.5215 106.857 32.8932 105.741 30.7791C104.626 28.656 104.068 26.1371 104.068 23.2223C104.068 20.9553 104.406 18.9446 105.08 17.1903C105.755 15.4271 106.695 13.9337 107.901 12.7102C109.115 11.4867 110.518 10.5601 112.111 9.9304C113.712 9.30066 115.435 8.98579 117.279 8.98579C118.88 8.98579 120.369 9.2152 121.746 9.67401C123.131 10.1328 124.355 10.7805 125.416 11.6172C126.487 12.4538 127.355 13.4479 128.021 14.5994C128.686 15.7509 129.1 17.0149 129.262 18.3913H122.501ZM143.185 37.3913C141.017 37.3913 139.146 36.964 137.571 36.1094C136.006 35.2457 134.8 34.0178 133.955 32.4254C133.118 30.8241 132.7 28.9214 132.7 26.7173C132.7 24.5762 133.123 22.705 133.968 21.1037C134.814 19.4934 136.006 18.2429 137.544 17.3523C139.083 16.4527 140.895 16.0028 142.982 16.0028C144.458 16.0028 145.807 16.2322 147.031 16.691C148.254 17.1499 149.311 17.8291 150.202 18.7287C151.093 19.6283 151.785 20.7393 152.28 22.0618C152.775 23.3752 153.022 24.8821 153.022 26.5824V28.2287H135.007V24.3963H146.882C146.873 23.6946 146.707 23.0694 146.383 22.5206C146.059 21.9718 145.614 21.5445 145.047 21.2386C144.489 20.9238 143.846 20.7663 143.117 20.7663C142.38 20.7663 141.718 20.9328 141.134 21.2656C140.549 21.5895 140.086 22.0348 139.744 22.6016C139.402 23.1593 139.222 23.7936 139.204 24.5043V28.4041C139.204 29.2498 139.37 29.992 139.703 30.6307C140.036 31.2604 140.508 31.7507 141.12 32.1016C141.732 32.4524 142.461 32.6278 143.306 32.6278C143.891 32.6278 144.422 32.5469 144.899 32.3849C145.375 32.223 145.785 31.9846 146.127 31.6697C146.468 31.3549 146.725 30.968 146.896 30.5092L152.955 30.6847C152.703 32.0431 152.15 33.2261 151.295 34.2337C150.449 35.2322 149.338 36.0104 147.962 36.5682C146.585 37.117 144.993 37.3913 143.185 37.3913ZM174.488 22.6016L168.429 22.7635C168.366 22.3317 168.195 21.9493 167.917 21.6165C167.638 21.2746 167.273 21.0092 166.824 20.8203C166.383 20.6224 165.87 20.5234 165.285 20.5234C164.52 20.5234 163.868 20.6764 163.328 20.9822C162.798 21.2881 162.537 21.7019 162.546 22.2237C162.537 22.6286 162.699 22.9794 163.032 23.2763C163.373 23.5732 163.981 23.8116 164.853 23.9915L168.848 24.7472C170.917 25.143 172.455 25.7997 173.463 26.7173C174.479 27.6349 174.992 28.8494 175.001 30.3608C174.992 31.7822 174.569 33.0192 173.733 34.0717C172.905 35.1243 171.771 35.9429 170.332 36.5277C168.893 37.1035 167.246 37.3913 165.393 37.3913C162.433 37.3913 160.099 36.7841 158.39 35.5696C156.689 34.3461 155.718 32.7088 155.475 30.6577L161.993 30.4957C162.136 31.2514 162.51 31.8272 163.113 32.223C163.715 32.6188 164.484 32.8168 165.42 32.8168C166.266 32.8168 166.954 32.6593 167.485 32.3445C168.016 32.0296 168.285 31.6113 168.294 31.0895C168.285 30.6217 168.078 30.2483 167.674 29.9695C167.269 29.6816 166.635 29.4567 165.771 29.2947L162.154 28.6065C160.076 28.2287 158.529 27.5315 157.512 26.5149C156.496 25.4893 155.992 24.1849 156.001 22.6016C155.992 21.2161 156.361 20.0331 157.108 19.0526C157.854 18.063 158.916 17.3073 160.292 16.7855C161.669 16.2637 163.292 16.0028 165.164 16.0028C167.971 16.0028 170.184 16.5921 171.803 17.7706C173.422 18.9401 174.317 20.5504 174.488 22.6016ZM189.949 16.2727V21.1307H176.873V16.2727H189.949ZM179.613 11.3068H186.211V30.4822C186.211 30.8871 186.274 31.2154 186.4 31.4673C186.535 31.7102 186.729 31.8857 186.981 31.9936C187.233 32.0926 187.534 32.142 187.885 32.142C188.137 32.142 188.402 32.1196 188.681 32.0746C188.969 32.0206 189.185 31.9756 189.329 31.9396L190.327 36.7031C190.012 36.7931 189.567 36.9055 188.991 37.0405C188.425 37.1754 187.745 37.2609 186.954 37.2969C185.406 37.3688 184.079 37.1889 182.973 36.7571C181.875 36.3163 181.034 35.6326 180.449 34.706C179.874 33.7794 179.595 32.6143 179.613 31.2109V11.3068Z" fill="white"/>
</svg>
